<svg width="40" height="40" viewBox="0 0 40 40" fill="none" xmlns="http://www.w3.org/2000/svg">
<path d="M23.83 9.78834L21.1717 16.8783M21.8683 7.80668L9.8 12.1933M19.5867 23.3083L18.7467 30.025M22.9817 21.4917L30.3517 25.175M30.285 28.02L21.38 31.9783M20 23.3333C20.8841 23.3333 21.7319 22.9822 22.357 22.357C22.9821 21.7319 23.3333 20.8841 23.3333 20C23.3333 19.116 22.9821 18.2681 22.357 17.643C21.7319 17.0179 20.8841 16.6667 20 16.6667C19.1159 16.6667 18.2681 17.0179 17.643 17.643C17.0179 18.2681 16.6667 19.116 16.6667 20C16.6667 20.8841 17.0179 21.7319 17.643 22.357C18.2681 22.9822 19.1159 23.3333 20 23.3333ZM33.3333 30C34.2174 30 35.0652 29.6488 35.6904 29.0237C36.3155 28.3986 36.6667 27.5507 36.6667 26.6667C36.6667 25.7826 36.3155 24.9348 35.6904 24.3097C35.0652 23.6845 34.2174 23.3333 33.3333 23.3333C32.4493 23.3333 31.6014 23.6845 30.9763 24.3097C30.3512 24.9348 30 25.7826 30 26.6667C30 27.5507 30.3512 28.3986 30.9763 29.0237C31.6014 29.6488 32.4493 30 33.3333 30ZM18.3333 36.6667C19.2174 36.6667 20.0652 36.3155 20.6904 35.6904C21.3155 35.0652 21.6667 34.2174 21.6667 33.3333C21.6667 32.4493 21.3155 31.6014 20.6904 30.9763C20.0652 30.3512 19.2174 30 18.3333 30C17.4493 30 16.6014 30.3512 15.9763 30.9763C15.3512 31.6014 15 32.4493 15 33.3333C15 34.2174 15.3512 35.0652 15.9763 35.6904C16.6014 36.3155 17.4493 36.6667 18.3333 36.6667ZM25 10C25.8841 10 26.7319 9.64882 27.357 9.0237C27.9821 8.39858 28.3333 7.55073 28.3333 6.66668C28.3333 5.78262 27.9821 4.93478 27.357 4.30965C26.7319 3.68453 25.8841 3.33334 25 3.33334C24.1159 3.33334 23.2681 3.68453 22.643 4.30965C22.0179 4.93478 21.6667 5.78262 21.6667 6.66668C21.6667 7.55073 22.0179 8.39858 22.643 9.0237C23.2681 9.64882 24.1159 10 25 10ZM6.66666 16.6667C7.55072 16.6667 8.39856 16.3155 9.02368 15.6904C9.64881 15.0652 10 14.2174 10 13.3333C10 12.4493 9.64881 11.6014 9.02368 10.9763C8.39856 10.3512 7.55072 10 6.66666 10C5.78261 10 4.93476 10.3512 4.30964 10.9763C3.68452 11.6014 3.33333 12.4493 3.33333 13.3333C3.33333 14.2174 3.68452 15.0652 4.30964 15.6904C4.93476 16.3155 5.78261 16.6667 6.66666 16.6667Z" stroke="#4465A6" stroke-width="3" stroke-linecap="round" stroke-linejoin="round"/>
</svg>
