<svg width="40" height="40" viewBox="0 0 40 40" fill="none" xmlns="http://www.w3.org/2000/svg">
<path d="M3.33334 36.6667V32.9167C3.33334 32.0555 3.55557 31.2705 4.00001 30.5617C4.44445 29.8528 5.05557 29.3044 5.83334 28.9167C7.27779 28.1944 8.77112 27.6389 10.3133 27.25C11.8556 26.8611 13.4311 26.6667 15.04 26.6667C16.6511 26.6667 18.2278 26.8611 19.77 27.25C21.3122 27.6389 22.7911 28.1944 24.2067 28.9167C24.9567 29.3055 25.5539 29.8544 25.9983 30.5633C26.4428 31.2722 26.665 32.0567 26.665 32.9167V36.6667H3.33334ZM30 36.6667V32.5C30 31.4444 29.7289 30.4583 29.1867 29.5417C28.6445 28.625 27.9711 27.8194 27.1667 27.125C28.0556 27.3472 28.9378 27.5905 29.8133 27.855C30.6889 28.1194 31.5289 28.4594 32.3333 28.875C33.0556 29.2639 33.6806 29.7639 34.2083 30.375C34.7361 30.9861 35 31.6944 35 32.5V36.6667H30ZM15 25C13.3889 25 12.0139 24.4305 10.875 23.2917C9.73612 22.1528 9.16668 20.7778 9.16668 19.1667C9.16668 17.5555 9.73612 16.1805 10.875 15.0417C12.0139 13.9028 13.3889 13.3333 15 13.3333C16.6111 13.3333 17.9861 13.9028 19.125 15.0417C20.2639 16.1805 20.8333 17.5555 20.8333 19.1667C20.8333 20.7778 20.2639 22.1528 19.125 23.2917C17.9861 24.4305 16.6111 25 15 25ZM29.1667 19.1667C29.1667 20.7778 28.5972 22.1528 27.4583 23.2917C26.3195 24.4305 24.9445 25 23.3333 25C23.1111 25 22.91 24.9928 22.73 24.9783C22.55 24.9639 22.3622 24.9294 22.1667 24.875C22.8611 24.0694 23.3683 23.1805 23.6883 22.2083C24.0083 21.2361 24.1678 20.2222 24.1667 19.1667C24.1667 18.1111 24.0067 17.0972 23.6867 16.125C23.3667 15.1528 22.86 14.2639 22.1667 13.4583C22.3611 13.4028 22.5489 13.3683 22.73 13.355C22.9111 13.3417 23.1122 13.3344 23.3333 13.3333C24.9445 13.3333 26.3195 13.9028 27.4583 15.0417C28.5972 16.1805 29.1667 17.5555 29.1667 19.1667ZM30.8333 16.6667C30.8333 14.5833 30.1039 12.8122 28.645 11.3533C27.1861 9.89443 25.4156 9.16555 23.3333 9.16666C25.4167 9.16666 27.1878 8.43721 28.6467 6.97832C30.1056 5.51943 30.8345 3.74888 30.8333 1.66666C30.8333 3.74999 31.5628 5.5211 33.0217 6.97999C34.4806 8.43888 36.2511 9.16777 38.3333 9.16666C36.25 9.16666 34.4789 9.8961 33.02 11.355C31.5611 12.8139 30.8322 14.5844 30.8333 16.6667Z" fill="#7ED9D9"/>
</svg>
